# xmcd
#
# Track frame offsets:
#       182
#       18490
#       37115
#       57230
#       69852
#       90015
#       108057
#       119220
#       151047
#       165380
#
# Disc length: 2528 seconds
#
# Revision: 6
# Processed by: cddbd v1.5.2PL0 Copyright (c) Steve Scherf et al.
# Submitted via: WaveLab 4.01
#
DISCID=6e09de0a
DTITLE=Keef Hartley Band - The Battle Of North West Six
DYEAR=1969
DGENRE=Blues Rock
TTITLE0=The Dansette Kid/ Hartley Jam For Bread
TTITLE1=Don´t Give Up
TTITLE2=Me and My Woman
TTITLE3=Hickory
TTITLE4=Don´t Be Afraid
TTITLE5=Not Foolish, Not Wise
TTITLE6=Waiting Around
TTITLE7=Tadpole
TTITLE8=Poor Mabel (You´re Just Like Me)
TTITLE9=Believe In You
EXTD=
EXTT0=
EXTT1=
EXTT2=
EXTT3=
EXTT4=
EXTT5=
EXTT6=
EXTT7=
EXTT8=
EXTT9=
PLAYORDER=
